<svg xmlns="http://www.w3.org/2000/svg" viewBox="0 0 1400 900" role="img" aria-labelledby="title desc">
  <title id="title">Two business pillars visual</title>
  <desc id="desc">An abstract tree with shared roots dividing into two business pillars.</desc>
  <defs>
    <linearGradient id="paper" x1="0" y1="0" x2="1" y2="1">
      <stop offset="0" stop-color="#FBF7F0"/>
      <stop offset="1" stop-color="#EFE4D1"/>
    </linearGradient>
    <radialGradient id="light" cx="50%" cy="36%" r="58%">
      <stop offset="0" stop-color="#E8C88E" stop-opacity="0.34"/>
      <stop offset="1" stop-color="#E8C88E" stop-opacity="0"/>
    </radialGradient>
  </defs>
  <rect width="1400" height="900" fill="url(#paper)"/>
  <rect width="1400" height="900" fill="url(#light)"/>
  <g fill="none" stroke-linecap="round" stroke-linejoin="round">
    <path d="M700 700 C 680 580, 690 472, 700 360" stroke="#0F2A1E" stroke-width="18"/>
    <path d="M700 380 C 560 310, 470 235, 395 132" stroke="#0F2A1E" stroke-width="14"/>
    <path d="M700 380 C 845 310, 940 238, 1010 132" stroke="#0F2A1E" stroke-width="14"/>
    <path d="M641 708 C 520 720, 406 760, 270 828" stroke="#0F2A1E" stroke-width="8" opacity="0.7"/>
    <path d="M675 712 C 545 676, 410 654, 245 662" stroke="#0F2A1E" stroke-width="6" opacity="0.5"/>
    <path d="M760 708 C 880 720, 995 760, 1132 828" stroke="#0F2A1E" stroke-width="8" opacity="0.7"/>
    <path d="M724 712 C 854 676, 990 654, 1155 662" stroke="#0F2A1E" stroke-width="6" opacity="0.5"/>
    <path d="M395 132 C 365 214, 310 270, 218 305" stroke="#C49A6C" stroke-width="4" opacity="0.78"/>
    <path d="M395 132 C 475 196, 530 238, 575 314" stroke="#C49A6C" stroke-width="4" opacity="0.78"/>
    <path d="M1010 132 C 925 196, 865 238, 825 314" stroke="#C49A6C" stroke-width="4" opacity="0.78"/>
    <path d="M1010 132 C 1045 214, 1102 270, 1188 305" stroke="#C49A6C" stroke-width="4" opacity="0.78"/>
  </g>
  <g fill="#FBF7F0" stroke="#0F2A1E" stroke-width="3">
    <rect x="180" y="270" width="190" height="98" rx="6"/>
    <rect x="500" y="292" width="190" height="98" rx="6"/>
    <rect x="710" y="292" width="190" height="98" rx="6"/>
    <rect x="1030" y="270" width="190" height="98" rx="6"/>
  </g>
  <g stroke="#C49A6C" stroke-width="3" opacity="0.9">
    <line x1="217" y1="308" x2="332" y2="308"/>
    <line x1="217" y1="332" x2="292" y2="332"/>
    <line x1="537" y1="330" x2="652" y2="330"/>
    <line x1="537" y1="354" x2="612" y2="354"/>
    <line x1="747" y1="330" x2="862" y2="330"/>
    <line x1="747" y1="354" x2="822" y2="354"/>
    <line x1="1067" y1="308" x2="1182" y2="308"/>
    <line x1="1067" y1="332" x2="1142" y2="332"/>
  </g>
  <g fill="#C49A6C">
    <circle cx="700" cy="360" r="10"/>
    <circle cx="395" cy="132" r="8"/>
    <circle cx="1010" cy="132" r="8"/>
    <circle cx="270" cy="828" r="5"/>
    <circle cx="1132" cy="828" r="5"/>
  </g>
</svg>
