<svg xmlns="http://www.w3.org/2000/svg" viewBox="0 0 1600 1000" role="img" aria-labelledby="title desc">
  <title id="title">Forest and amber brand visual</title>
  <desc id="desc">A quiet forest-inspired abstract visual with amber light and root-like digital lines.</desc>
  <defs>
    <linearGradient id="bg" x1="0" y1="0" x2="1" y2="1">
      <stop offset="0" stop-color="#1B3A2D"/>
      <stop offset="0.52" stop-color="#1B3A2D"/>
      <stop offset="1" stop-color="#FBF7F0"/>
    </linearGradient>
    <radialGradient id="amber" cx="69%" cy="26%" r="46%">
      <stop offset="0" stop-color="#E8C88E" stop-opacity="0.78"/>
      <stop offset="0.42" stop-color="#C49A6C" stop-opacity="0.32"/>
      <stop offset="1" stop-color="#C49A6C" stop-opacity="0"/>
    </radialGradient>
    <filter id="soft">
      <feGaussianBlur stdDeviation="18"/>
    </filter>
  </defs>
  <rect width="1600" height="1000" fill="url(#bg)"/>
  <rect width="1600" height="1000" fill="url(#amber)"/>
  <g opacity="0.28" stroke="#FBF7F0" stroke-width="1.2">
    <path d="M140 820 C 300 720, 390 705, 520 615 S 850 410, 1020 238"/>
    <path d="M210 902 C 360 792, 520 758, 650 640 S 930 385, 1160 194"/>
    <path d="M350 980 C 520 826, 700 764, 850 610 S 1125 318, 1360 110"/>
    <path d="M450 895 C 590 790, 720 756, 860 682 S 1060 535, 1295 430"/>
  </g>
  <g opacity="0.45" stroke="#C49A6C" stroke-width="2" fill="none">
    <path d="M100 760 C 265 675, 350 674, 480 585 C 620 489, 760 385, 880 292"/>
    <path d="M90 850 C 275 740, 480 742, 620 620 C 750 506, 850 400, 1020 282"/>
    <path d="M190 940 C 400 785, 615 812, 750 670 C 870 545, 1035 430, 1210 270"/>
  </g>
  <g opacity="0.72">
    <rect x="0" y="0" width="235" height="1000" fill="#1B3A2D" opacity="0.62"/>
    <rect x="255" y="0" width="38" height="1000" fill="#1B3A2D" opacity="0.42"/>
    <rect x="330" y="0" width="64" height="1000" fill="#1B3A2D" opacity="0.36"/>
    <rect x="1260" y="0" width="44" height="1000" fill="#1B3A2D" opacity="0.30"/>
    <rect x="1360" y="0" width="84" height="1000" fill="#1B3A2D" opacity="0.42"/>
  </g>
  <g opacity="0.72" filter="url(#soft)">
    <ellipse cx="1110" cy="225" rx="190" ry="120" fill="#E8C88E" opacity="0.32"/>
    <ellipse cx="1075" cy="255" rx="90" ry="54" fill="#F5E6C7" opacity="0.28"/>
  </g>
  <g fill="#FBF7F0" opacity="0.28">
    <circle cx="520" cy="617" r="4"/>
    <circle cx="655" cy="640" r="4"/>
    <circle cx="860" cy="682" r="3.5"/>
    <circle cx="1020" cy="282" r="4.5"/>
    <circle cx="1210" cy="270" r="3.5"/>
  </g>
</svg>
