<svg xmlns="http://www.w3.org/2000/svg" viewBox="0 0 1400 900" role="img" aria-labelledby="title desc">
  <title id="title">Pine product visual</title>
  <desc id="desc">A clean SaaS dashboard and mobile booking mockup for field service operations.</desc>
  <defs>
    <linearGradient id="bg" x1="0" y1="0" x2="1" y2="1">
      <stop offset="0" stop-color="#FBF7F0"/>
      <stop offset="1" stop-color="#E9DDC9"/>
    </linearGradient>
    <linearGradient id="ui" x1="0" y1="0" x2="1" y2="1">
      <stop offset="0" stop-color="#1B3A2D"/>
      <stop offset="1" stop-color="#1B3A2D"/>
    </linearGradient>
  </defs>
  <rect width="1400" height="900" fill="url(#bg)"/>
  <circle cx="1115" cy="190" r="175" fill="#C49A6C" opacity="0.16"/>
  <circle cx="240" cy="720" r="210" fill="#1B3A2D" opacity="0.08"/>
  <rect x="270" y="170" width="720" height="490" rx="24" fill="#152828" opacity="0.16"/>
  <rect x="250" y="145" width="720" height="490" rx="24" fill="#FBF7F0" stroke="#152828" stroke-opacity="0.12"/>
  <rect x="250" y="145" width="720" height="76" rx="24" fill="url(#ui)"/>
  <rect x="282" y="254" width="170" height="350" rx="12" fill="#1B3A2D" opacity="0.10"/>
  <rect x="486" y="254" width="420" height="64" rx="12" fill="#1B3A2D" opacity="0.12"/>
  <rect x="486" y="350" width="196" height="112" rx="12" fill="#FFFFFF" stroke="#152828" stroke-opacity="0.10"/>
  <rect x="710" y="350" width="196" height="112" rx="12" fill="#FFFFFF" stroke="#152828" stroke-opacity="0.10"/>
  <rect x="486" y="492" width="420" height="112" rx="12" fill="#FFFFFF" stroke="#152828" stroke-opacity="0.10"/>
  <g fill="#C49A6C">
    <rect x="516" y="382" width="74" height="10" rx="5"/>
    <rect x="740" y="382" width="74" height="10" rx="5"/>
    <rect x="516" y="532" width="252" height="10" rx="5"/>
  </g>
  <g fill="#1B3A2D" opacity="0.56">
    <rect x="516" y="412" width="126" height="10" rx="5"/>
    <rect x="740" y="412" width="126" height="10" rx="5"/>
    <rect x="516" y="562" width="320" height="10" rx="5"/>
    <rect x="305" y="284" width="118" height="12" rx="6"/>
    <rect x="305" y="328" width="94" height="12" rx="6"/>
    <rect x="305" y="372" width="108" height="12" rx="6"/>
  </g>
  <rect x="875" y="270" width="250" height="440" rx="34" fill="#152828" opacity="0.18"/>
  <rect x="852" y="245" width="250" height="440" rx="34" fill="#152828"/>
  <rect x="874" y="285" width="206" height="350" rx="20" fill="#FBF7F0"/>
  <rect x="900" y="322" width="154" height="46" rx="12" fill="#1B3A2D" opacity="0.12"/>
  <rect x="900" y="394" width="154" height="110" rx="12" fill="#FFFFFF" stroke="#152828" stroke-opacity="0.10"/>
  <rect x="900" y="526" width="154" height="78" rx="12" fill="#1B3A2D" opacity="0.88"/>
  <g fill="#C49A6C">
    <circle cx="930" cy="430" r="10"/>
    <circle cx="968" cy="430" r="10"/>
    <circle cx="1006" cy="430" r="10"/>
    <circle cx="1044" cy="430" r="10"/>
  </g>
  <g stroke="#FBF7F0" stroke-width="5" opacity="0.82">
    <line x1="928" y1="560" x2="1028" y2="560"/>
    <line x1="928" y1="582" x2="1002" y2="582"/>
  </g>
</svg>
